<?xml version="1.0" encoding="utf-8"?>
<!-- Svg Vector Icons : http://www.onlinewebfonts.com/icon -->
<!DOCTYPE svg PUBLIC "-//W3C//DTD SVG 1.1//EN" "http://www.w3.org/Graphics/SVG/1.1/DTD/svg11.dtd">
<svg version="1.1" xmlns="http://www.w3.org/2000/svg" xmlns:xlink="http://www.w3.org/1999/xlink" x="0px" y="0px" viewBox="0 0 256 256" enable-background="new 0 0 256 256" xml:space="preserve">
<metadata> Svg Vector Icons : http://www.onlinewebfonts.com/icon </metadata>
<g><g><path fill="#000000" d="M119.3,247.6C59,247.6,10,198.6,10,138.3C10,78.1,59,29,119.3,29c3.1,0,5.7,2.6,5.7,5.7v101l76.4,66c1.2,1,1.8,2.4,2,3.9c0.1,1.5-0.4,3-1.3,4.1C181.2,233.8,151,247.6,119.3,247.6z M113.6,40.6c-51.3,3-92.2,45.7-92.2,97.7c0,54,43.9,97.9,97.9,97.9c26.6,0,51.8-10.8,70.3-29.8l-74-63.8c-1.3-1.1-2-2.6-2-4.3V40.6z"/><path fill="#000000" d="M240.3,123.4H136.7c-3.1,0-5.7-2.6-5.7-5.7V14.1c0-3.1,2.6-5.7,5.7-5.7C197,8.4,246,57.4,246,117.7C246,120.8,243.4,123.4,240.3,123.4z M142.4,112h92.1c-2.9-49.5-42.6-89.2-92.1-92.1V112z"/><path fill="#000000" d="M215.2,205.6c-1.3,0-2.6-0.5-3.7-1.4L133,136.6c-1.8-1.5-2.4-4-1.6-6.3c0.8-2.2,3-3.7,5.3-3.7h103.6c3.1,0,5.7,2.6,5.7,5.7c0,26.2-9.4,51.5-26.6,71.4C218.3,204.9,216.7,205.6,215.2,205.6z M152,137.9l62.4,53.9c11.9-15.5,18.9-34.3,20-53.9H152z"/></g></g>
</svg>